<svg xmlns="http://www.w3.org/2000/svg" viewBox="0 10.329999923706055 231.57000732421875 36.55000686645508" data-asc="0.927734375"><g fill="#000000"><g fill="#000000" transform="translate(0, 0)"><path d="M29.76 34.35Q29.59 38.06 27.76 40.91Q25.93 43.75 22.62 45.31Q19.31 46.88 15.06 46.88Q8.06 46.88 4.03 42.31Q0 37.74 0 29.42L0 27.66Q0 22.44 1.82 18.52Q3.64 14.60 7.06 12.46Q10.47 10.33 14.97 10.33Q21.44 10.33 25.37 13.73Q29.30 17.14 29.83 23.12L21.29 23.12Q21.19 19.87 19.65 18.46Q18.12 17.04 14.97 17.04Q11.77 17.04 10.28 19.43Q8.79 21.83 8.72 27.08L8.72 29.59Q8.72 35.28 10.14 37.72Q11.57 40.16 15.06 40.16Q18.02 40.16 19.58 38.77Q21.14 37.38 21.24 34.35L29.76 34.35ZM61.69 10.84L61.69 34.11Q61.69 38.06 60.01 40.95Q58.33 43.85 55.18 45.36Q52.03 46.88 47.73 46.88Q41.24 46.88 37.50 43.51Q33.76 40.14 33.69 34.28L33.69 10.84L42.31 10.84L42.31 34.45Q42.46 40.28 47.73 40.28Q50.39 40.28 51.76 38.82Q53.13 37.35 53.13 34.06L53.13 10.84L61.69 10.84ZM67.04 46.39L67.04 10.84L79.81 10.84Q86.67 10.84 90.25 13.35Q93.82 15.87 93.82 20.65Q93.82 23.41 92.55 25.37Q91.28 27.32 88.82 28.25Q91.60 28.98 93.09 30.98Q94.58 32.98 94.58 35.86Q94.58 41.09 91.27 43.71Q87.96 46.34 81.47 46.39L67.04 46.39M75.61 31.27L75.61 39.79L81.23 39.79Q83.54 39.79 84.79 38.73Q86.04 37.67 86.04 35.74Q86.04 31.30 81.62 31.27L75.61 31.27M75.61 25.66L80.08 25.66Q82.89 25.63 84.08 24.63Q85.28 23.63 85.28 21.68Q85.28 19.43 83.98 18.44Q82.69 17.46 79.81 17.46L75.61 17.46L75.61 25.66ZM129.39 29.35Q129.39 34.55 127.47 38.55Q125.54 42.55 121.98 44.71Q118.43 46.88 113.89 46.88Q109.35 46.88 105.83 44.79Q102.32 42.70 100.35 38.82Q98.39 34.94 98.29 29.91L98.29 27.91Q98.29 22.68 100.21 18.69Q102.12 14.70 105.70 12.52Q109.28 10.35 113.84 10.35Q118.36 10.35 121.90 12.50Q125.44 14.65 127.40 18.62Q129.37 22.58 129.39 27.71L129.39 29.35M120.68 27.86Q120.68 22.56 118.91 19.81Q117.14 17.07 113.84 17.07Q107.40 17.07 107.03 26.73L107.01 29.35Q107.01 34.57 108.74 37.38Q110.47 40.19 113.89 40.19Q117.14 40.19 118.90 37.43Q120.65 34.67 120.68 29.49L120.68 27.86ZM152.15 36.94Q152.15 35.06 150.82 34.01Q149.49 32.96 146.14 31.84Q142.80 30.71 140.67 29.66Q133.76 26.27 133.76 20.34Q133.76 17.38 135.49 15.12Q137.21 12.87 140.36 11.61Q143.51 10.35 147.44 10.35Q151.27 10.35 154.31 11.72Q157.35 13.09 159.03 15.61Q160.72 18.14 160.72 21.39L152.17 21.39Q152.17 19.21 150.84 18.02Q149.51 16.82 147.24 16.82Q144.95 16.82 143.62 17.83Q142.29 18.85 142.29 20.41Q142.29 21.78 143.75 22.89Q145.21 24.00 148.90 25.18Q152.59 26.37 154.96 27.73Q160.72 31.05 160.72 36.89Q160.72 41.55 157.20 44.21Q153.69 46.88 147.56 46.88Q143.24 46.88 139.73 45.32Q136.23 43.77 134.46 41.08Q132.69 38.38 132.69 34.86L141.28 34.86Q141.28 37.72 142.76 39.07Q144.24 40.43 147.56 40.43Q149.68 40.43 150.92 39.51Q152.15 38.60 152.15 36.94ZM186.13 39.79L201.05 39.79L201.05 46.39L177.56 46.39L177.56 10.84L186.13 10.84L186.13 39.79ZM223.00 36.94Q223.00 35.06 221.67 34.01Q220.34 32.96 216.99 31.84Q213.65 30.71 211.52 29.66Q204.61 26.27 204.61 20.34Q204.61 17.38 206.34 15.12Q208.06 12.87 211.21 11.61Q214.36 10.35 218.29 10.35Q222.12 10.35 225.16 11.72Q228.20 13.09 229.88 15.61Q231.57 18.14 231.57 21.39L223.02 21.39Q223.02 19.21 221.69 18.02Q220.36 16.82 218.09 16.82Q215.80 16.82 214.47 17.83Q213.13 18.85 213.13 20.41Q213.13 21.78 214.60 22.89Q216.06 24.00 219.75 25.18Q223.44 26.37 225.81 27.73Q231.57 31.05 231.57 36.89Q231.57 41.55 228.05 44.21Q224.54 46.88 218.41 46.88Q214.09 46.88 210.58 45.32Q207.08 43.77 205.31 41.08Q203.54 38.38 203.54 34.86L212.13 34.86Q212.13 37.72 213.61 39.07Q215.09 40.43 218.41 40.43Q220.53 40.43 221.77 39.51Q223.00 38.60 223.00 36.94Z"/></g></g></svg>